PathFileType	4	(X/Y/Z)	Patient4_TMGait_0pt2_03_left_11.trc.trc
DataRate	CameraRate	NumFrames	NumMarkers	Units	OrigDataRate	OrigDataStartFrame	OrigNumFrames
45.602605863192	45.602605863192	4	33	mm	45.602605863192	89	       141
Frame#	Time	Sacral			L.Shoulder			Chest			R.Shoulder			Neck			R.ASIS			L.ASIS			R.Thigh.Superior			R.Thigh.Lateral			R.Thigh.Inferior			R.Patella			L.Thigh.Superior			L.Thigh.Lateral			L.Thigh.Inferior			L.Patella			L.Shank.Superior			L.Shank.Lateral			L.Shank.Inferior			R.Shank.Superior			R.Shank.Lateral			R.Shank.Inferior			R.Heel			R.Midfoot.Superior			R.Midfoot.Lateral			R.Toe			L.Heel			L.Midfoot.Lateral			L.Midfoot.Superior			L.Toe			L.Elbow			L.Wrist			R.Elbow			R.Wrist			
		X1	Y1	Z1	X2	Y2	Z2	X3	Y3	Z3	X4	Y4	Z4	X5	Y5	Z5	X6	Y6	Z6	X7	Y7	Z7	X8	Y8	Z8	X9	Y9	Z9	X10	Y10	Z10	X11	Y11	Z11	X12	Y12	Z12	X13	Y13	Z13	X14	Y14	Z14	X15	Y15	Z15	X16	Y16	Z16	X17	Y17	Z17	X18	Y18	Z18	X19	Y19	Z19	X20	Y20	Z20	X21	Y21	Z21	X22	Y22	Z22	X23	Y23	Z23	X24	Y24	Z24	X25	Y25	Z25	X26	Y26	Z26	X27	Y27	Z27	X28	Y28	Z28	X29	Y29	Z29	X30	Y30	Z30	X31	Y31	Z31	X32	Y32	Z32	X33	Y33	Z33	

89	24.229714285714	765.605658706363	1011.430947611763	505.431012395371	1005.601109366083	1433.796062423122	387.789652390939	1046.573023521756	1361.194479533221	572.241298464627	913.093175151014	1438.107548198613	708.447221653805	932.895558810037	1494.965211474927	531.824962660833	959.865576538514	939.853426016794	675.139270665605	1009.276502084964	962.503309038421	406.050808056664	1024.064330141388	747.462306066464	640.164931772168	947.915935270926	631.156482542360	690.336476110167	1036.045826705601	587.096699798282	616.258909910524	1043.666508610745	500.381705884835	621.974655661092	1014.918632736105	732.771290046546	423.539726743560	913.421563494148	629.489030819884	330.024576245324	978.603637370272	542.126242908647	404.020145704657	968.189244060713	471.444871170333	404.581151056466	928.309787555022	407.925374424284	385.470574146017	826.878945833561	317.389737514673	310.772268683259	846.379969905181	192.373683232942	375.445062379671	1020.351915053649	408.754422972248	628.468379224473	952.589059570892	303.138022284432	692.331739247002	999.385390067098	209.083396527364	629.968626381932	870.139851187972	41.968213784886	607.884166047229	1042.510136060552	98.209848073109	633.495656409920	958.178399814663	36.781512158093	677.399891076080	1164.509338728574	49.932720896161	653.004584616368	692.782820126614	50.286932441999	386.694575514007	775.267212591170	42.044720016466	316.026832405058	858.952163571766	97.760619352704	353.045110664143	985.213709327914	40.876917321465	336.887930009514	1164.267841882357	1135.293744508211	264.543733707969	1401.800393667932	1184.273091200575	352.063141677189	758.125147043028	1123.118482953907	798.380886397782	804.511537631060	871.886045217988	854.920403451596	
90	24.251642857143	766.491703718899	1012.137957193215	513.655401973157	1004.830028192372	1434.237036441887	392.082396908528	1048.134945338837	1362.108685652678	576.140576530986	916.320907821074	1439.340525424128	713.740028842361	933.816711421006	1495.785473107760	536.549611301486	962.607169284028	940.600379369221	680.928395764497	1008.717653804977	963.117366810718	411.410218084111	1024.828425836189	747.124131773639	645.363876943581	947.574133388796	631.220401790357	695.256973233761	1034.866643652093	586.694760003832	620.505026313517	1041.629451580246	499.937317583247	625.481614609768	1016.780871471801	734.329907839080	427.611512969819	915.467649135148	630.320368851673	334.597438180639	983.315496382077	543.036707146770	407.029154057157	973.658590006838	471.316912040773	406.842806147231	931.798060803209	408.485663310513	388.081300414496	827.875381657260	320.903961238113	313.413579677822	845.915948933176	194.856657573886	376.498686000515	1017.854226037264	408.479992648527	631.373373725382	949.762794576742	302.758023314252	694.695712453436	995.813820300692	208.939688394677	631.206777531949	865.879948623503	42.005637056639	608.067730173781	1038.317095590865	98.294969421314	633.858615233664	953.928711565790	36.833686528497	677.552523959135	1160.279565903500	49.917833698336	653.136265610676	689.533500239080	56.271799184719	386.937377697658	771.676363560505	45.900185635212	316.288132846533	856.751454792835	99.218552499554	353.246177925585	981.116200935310	39.450346022711	336.969573514081	1156.975381382422	1130.396619002192	270.250049810769	1396.654505617868	1166.367535757993	359.372308142475	764.170560984898	1124.444330597722	809.627494733015	817.658084834508	875.733951768400	870.148828384170	
91	24.273571428571	767.094170710719	1012.751044804003	521.656818836271	1003.498970947761	1434.692242843728	396.099869461399	1049.410653698128	1362.955408920471	579.631385393877	919.516259108037	1440.435074015943	718.866071118834	934.457880159807	1496.559448453388	541.136683707792	965.179972565153	941.245055217502	686.280291436451	1007.798243976987	963.708338364547	416.312503944803	1025.287869997973	746.640718856810	650.403003296952	946.776934912314	631.256208454746	699.971708298801	1033.315086269359	586.234549588503	624.675163582097	1039.177657869023	499.491305728246	628.992942012310	1019.501308903098	736.366679030114	431.608565514098	919.201601407493	630.955185021466	339.277945235971	990.142463460622	544.216549481997	410.306597224066	981.410170398479	471.198336918618	409.330456427672	937.213303514321	409.005365189798	390.990394251355	830.510727724477	324.949923419454	316.413053866404	846.428864136102	197.917971889214	377.893775324288	1015.009899789519	408.235958681040	634.284882318829	946.566565323934	302.373804081430	696.938396237921	992.092219798023	208.832178089444	632.482728499865	861.605271490266	42.045921992829	608.218029585088	1034.143212565563	98.370290398932	634.237608302355	949.667313917289	36.862865346198	677.669189825009	1156.042407480330	49.831571343171	653.247842306707	686.679482121280	63.828556720509	387.529903108469	768.298568518308	51.010984132084	316.798056115343	854.986284140552	101.356444673596	353.702961088740	976.946919923020	38.115654635465	337.118598528184	1148.154941732253	1125.290022970323	275.638185765052	1389.559426708031	1145.710089397430	366.142166584991	771.211733698040	1125.285433271224	820.919258956157	832.757625690527	879.450617585875	884.687767552028	
92	24.295500000000	767.435057067040	1013.224335185970	529.373064810942	1001.621876993225	1435.124007861913	399.831185202014	1050.361109897068	1363.708562647546	582.711856773329	922.609037918184	1441.343778867629	723.794618480079	934.796719525439	1497.252023005863	545.571338886342	967.584804285344	941.789875665638	691.200037763692	1006.592030161093	964.245505456971	420.763317776197	1025.543260034912	746.048078699309	655.223490601200	945.715840583123	631.249827647240	704.429840279685	1031.578527294344	585.727780357043	628.688318852796	1036.543174168447	499.020119971459	632.417859181436	1023.032025429709	738.850050915836	435.653975578519	924.643966198069	631.425971662263	344.090249012818	998.972250744515	545.710057605388	413.963434374887	991.303985615804	471.165574747425	412.148563660389	944.490883440538	409.540573976681	394.240691879193	834.775438741794	329.556733310956	319.819102550639	847.927515434143	201.595847853149	379.677418547342	1012.011583052350	407.995877253064	637.109643525363	943.185557989524	301.987314131178	699.013171150636	988.312404356835	208.733724277571	633.727611754728	857.306882751924	42.095631254970	608.328551292868	1029.980001115153	98.414663724218	634.598381700699	945.380574142992	36.878480975348	677.747647699219	1151.791056190727	49.649259580273	653.344326339781	684.331617242637	72.946141112449	388.575975111227	765.223481314181	57.443102813396	317.637959606287	853.707505126510	104.263496804087	354.477832449829	972.769038666704	36.991020409954	337.348906588760	1137.785737162417	1119.979247984022	280.748645549485	1380.066390602265	1122.365756730320	372.098190348845	779.352146972893	1125.522761817923	832.113689112032	849.777286007460	882.937868393350	898.386931251988	
